<?xml version="1.0" standalone="no"?>
<!DOCTYPE svg PUBLIC "-//W3C//DTD SVG 20010904//EN"
 "http://www.w3.org/TR/2001/REC-SVG-20010904/DTD/svg10.dtd">
<svg version="1.0" xmlns="http://www.w3.org/2000/svg"
 width="10px" height="10px" viewBox="0 0 1261.000000 1280.000000"
 preserveAspectRatio="xMidYMid meet" style="fill:#fff">
 
<g transform="translate(0.000000,1280.000000) scale(0.100000,-0.100000)"
stroke="none">

<path d="M6130 11369 c-893 -61 -1633 -293 -2305 -721 -595 -380 -1110 -875
-1511 -1454 -267 -387 -500 -852 -647 -1295 -184 -552 -270 -1166 -238 -1702
7 -116 21 -281 32 -367 184 -1467 999 -2782 2234 -3604 352 -234 694 -408
1095 -554 259 -95 587 -182 779 -207 562 -74 1525 -48 2086 56 264 49 706 209
1144 414 187 87 288 146 386 225 44 36 132 100 195 142 64 43 159 117 212 165
273 247 688 754 921 1123 89 141 279 521 355 710 241 599 319 1179 310 2298
-4 470 -5 479 -32 617 -15 77 -30 143 -35 148 -4 4 -1055 6 -2337 5 l-2329 -3
3 -220 c6 -517 25 -1500 31 -1620 l6 -130 690 -7 c1081 -11 1700 -30 1825 -57
l35 -7 -1 -56 c-4 -189 -283 -730 -513 -995 -335 -386 -943 -691 -1576 -791
-268 -43 -481 -51 -731 -27 -697 67 -1399 418 -1868 933 -398 438 -630 936
-729 1562 -18 116 -21 179 -22 450 0 336 7 409 60 681 77 390 247 751 515
1099 96 123 356 385 490 490 358 284 804 501 1222 594 510 114 941 93 1410
-70 375 -131 721 -319 931 -506 50 -46 100 -89 110 -97 16 -13 56 24 448 415
629 626 979 1006 979 1062 0 64 -309 319 -660 542 -519 332 -976 524 -1545
650 -432 96 -993 139 -1425 109z"/>
</g>
</svg>
