<svg xmlns="http://www.w3.org/2000/svg" width="80" height="80" viewBox="0 0 500 500" fill="white">
  <defs>
    <style>
      .cls-1 {
        fill-rule: evenodd;
      }
    </style>
  </defs>
  <path class="cls-1" d="M275.092,338.039c0-16.734,5.58-60.657,25.8-87.845,25.786-34.856,49.486-56.463,106.649-56.463,39.036,0,69.705,36.244,69.705,75.294s-25.1,80.866-52.282,96.9c0-46.009-18.819-74.595-69.7-74.595-32.066,0-55.068,23-55.068,46.708,14.637,0,29.97,9.065,29.97,27.188-10.452-6.271-19.517-10.454-29.97-10.454,0,16.734,5.571,36.255,18.819,50.192,2.785-13.937,8.365-25.09,19.516-25.09,13.248,0,25.8,14.637,25.8,30.671,0,16.734-9.762,29.975-26.494,29.975-27.884,0-57.155-35.556-59.949-85.748H263.94c0,17.433,1.389,31.373,5.571,41.826,2.8,7.667,5.581,14.646,5.581,21.616,0,9.755-13.936,44.621-25.1,69.713-11.151-25.092-25.088-59.958-25.088-69.713,0-6.97,2.786-13.949,5.571-21.616,4.182-10.453,5.58-24.393,5.58-41.826H222.113c-2.787,50.192-32.067,85.748-59.949,85.748-16.723,0-26.487-13.241-26.487-29.975,0-16.034,12.549-30.671,25.8-30.671,11.151,0,16.722,11.153,19.518,25.09,13.237-13.937,18.817-33.458,18.817-50.192-10.453,0-19.516,4.183-29.97,10.454,0-18.123,15.335-27.188,29.97-27.188,0-23.7-23-46.708-55.066-46.708-50.884,0-69.712,28.586-69.712,74.595-27.184-16.035-52.272-57.861-52.272-96.9s30.669-75.294,69.7-75.294c57.163,0,80.863,21.607,106.649,56.463,20.216,27.188,25.8,71.111,25.8,87.845h11.151c0-39.738-18.129-79.477-36.249-113.636-8.365-16.035-18.12-35.556-18.12-52.987,0-20.918,9.755-43.923,23.7-69.015C218.628,78,237.456,41.745,250,11.072,262.544,41.745,281.361,78,294.609,102.4c13.947,25.092,23.7,48.1,23.7,69.015,0,17.431-9.753,36.952-18.12,52.987-18.129,34.159-36.249,73.9-36.249,113.636h11.152Z"/>
</svg>
